<?xml version="1.0" encoding="utf-8"?>
<!-- Generator: Adobe Illustrator 16.0.0, SVG Export Plug-In . SVG Version: 6.00 Build 0)  -->
<!DOCTYPE svg PUBLIC "-//W3C//DTD SVG 1.1//EN" "http://www.w3.org/Graphics/SVG/1.1/DTD/svg11.dtd" [
	<!ENTITY ns_flows "http://ns.adobe.com/Flows/1.0/">
	<!ENTITY ns_extend "http://ns.adobe.com/Extensibility/1.0/">
	<!ENTITY ns_ai "http://ns.adobe.com/AdobeIllustrator/10.0/">
	<!ENTITY ns_graphs "http://ns.adobe.com/Graphs/1.0/">
	<!ENTITY ns_vars "http://ns.adobe.com/Variables/1.0/">
	<!ENTITY ns_imrep "http://ns.adobe.com/ImageReplacement/1.0/">
	<!ENTITY ns_sfw "http://ns.adobe.com/SaveForWeb/1.0/">
	<!ENTITY ns_custom "http://ns.adobe.com/GenericCustomNamespace/1.0/">
	<!ENTITY ns_adobe_xpath "http://ns.adobe.com/XPath/1.0/">
]>
<svg version="1.1" id="Layer_1" xmlns:x="&ns_extend;" xmlns:i="&ns_ai;" xmlns:graph="&ns_graphs;"
	 xmlns="http://www.w3.org/2000/svg" xmlns:xlink="http://www.w3.org/1999/xlink" xmlns:a="http://ns.adobe.com/AdobeSVGViewerExtensions/3.0/"
	 x="0px" y="0px" width="998px" height="358px" viewBox="0 0 998 358" enable-background="new 0 0 998 358" xml:space="preserve">
<metadata><?xpacket begin="﻿" id="W5M0MpCehiHzreSzNTczkc9d"?>
<x:xmpmeta xmlns:x="adobe:ns:meta/" x:xmptk="Adobe XMP Core 5.3-c011 66.145661, 2012/02/06-14:56:27        ">
   <rdf:RDF xmlns:rdf="http://www.w3.org/1999/02/22-rdf-syntax-ns#">
      <rdf:Description rdf:about=""
            xmlns:dc="http://purl.org/dc/elements/1.1/">
         <dc:format>image/svg+xml</dc:format>
         <dc:title>
            <rdf:Alt>
               <rdf:li xml:lang="x-default">Web</rdf:li>
            </rdf:Alt>
         </dc:title>
      </rdf:Description>
      <rdf:Description rdf:about=""
            xmlns:xmp="http://ns.adobe.com/xap/1.0/"
            xmlns:xmpGImg="http://ns.adobe.com/xap/1.0/g/img/">
         <xmp:CreatorTool>Adobe Illustrator CS6 (Windows)</xmp:CreatorTool>
         <xmp:CreateDate>2021-11-23T00:29:20+05:30</xmp:CreateDate>
         <xmp:ModifyDate>2021-11-23T00:29:27+05:30</xmp:ModifyDate>
         <xmp:MetadataDate>2021-11-23T00:29:27+05:30</xmp:MetadataDate>
         <xmp:Thumbnails>
            <rdf:Alt>
               <rdf:li rdf:parseType="Resource">
                  <xmpGImg:width>256</xmpGImg:width>
                  <xmpGImg:height>96</xmpGImg:height>
                  <xmpGImg:format>JPEG</xmpGImg:format>
                  <xmpGImg:image>/9j/4AAQSkZJRgABAgEBLAEsAAD/7QAsUGhvdG9zaG9wIDMuMAA4QklNA+0AAAAAABABLAAAAAEA&#xA;AQEsAAAAAQAB/+4ADkFkb2JlAGTAAAAAAf/bAIQABgQEBAUEBgUFBgkGBQYJCwgGBggLDAoKCwoK&#xA;DBAMDAwMDAwQDA4PEA8ODBMTFBQTExwbGxscHx8fHx8fHx8fHwEHBwcNDA0YEBAYGhURFRofHx8f&#xA;Hx8fHx8fHx8fHx8fHx8fHx8fHx8fHx8fHx8fHx8fHx8fHx8fHx8fHx8fHx8f/8AAEQgAYAEAAwER&#xA;AAIRAQMRAf/EAaIAAAAHAQEBAQEAAAAAAAAAAAQFAwIGAQAHCAkKCwEAAgIDAQEBAQEAAAAAAAAA&#xA;AQACAwQFBgcICQoLEAACAQMDAgQCBgcDBAIGAnMBAgMRBAAFIRIxQVEGE2EicYEUMpGhBxWxQiPB&#xA;UtHhMxZi8CRygvElQzRTkqKyY3PCNUQnk6OzNhdUZHTD0uIIJoMJChgZhJRFRqS0VtNVKBry4/PE&#xA;1OT0ZXWFlaW1xdXl9WZ2hpamtsbW5vY3R1dnd4eXp7fH1+f3OEhYaHiImKi4yNjo+Ck5SVlpeYmZ&#xA;qbnJ2en5KjpKWmp6ipqqusra6voRAAICAQIDBQUEBQYECAMDbQEAAhEDBCESMUEFURNhIgZxgZEy&#xA;obHwFMHR4SNCFVJicvEzJDRDghaSUyWiY7LCB3PSNeJEgxdUkwgJChgZJjZFGidkdFU38qOzwygp&#xA;0+PzhJSktMTU5PRldYWVpbXF1eX1RlZmdoaWprbG1ub2R1dnd4eXp7fH1+f3OEhYaHiImKi4yNjo&#xA;+DlJWWl5iZmpucnZ6fkqOkpaanqKmqq6ytrq+v/aAAwDAQACEQMRAD8A9U4q7FXYq7FXYq7FXYq7&#xA;FXYq7FXYq7FXYq7FXYq7FXYq7FXYq7FXYq7FXYq7FXYq7FXYq7FXYq7FXYq7FXYq7FXYq7FXYq7F&#xA;XYq7FXYq7FXYq7FXYq7FXYq7FXYq7FXYq7FXYq7FXYqwHzb5r1fT9Xe30y9EqIvKaIRI3pEdQWpv&#xA;/DOV7V7TzYsxjinY6ih6fi42TIQdizLRriW40ixuJm5TTW8UkjUAqzICTQUHU50WkmZ4YSlzMQT8&#xA;m+JsBGZkMnYq7FXYq7FXYq7FXYq7FXYq7FXYq7FXYq7FXYq7FXYq7FXYq7FXYq7FXYq7FXYq7FXY&#xA;ql2ua5ZaNZNc3LVJ2iiH2nbwH8TmHrdbDTw4pfAd7GcxEMN5fmHc/wC5OCqJqP7pLcH+6Q/Zfi32&#xA;P9br45zt9oz/AHseWTau4dDXT3tHrO/eyny55Xs9Is2RgJ7qcf6XOwryr1UV/Z/Xm87P7Nhp4UfV&#xA;KX1Hv8vc2wxiIefx/mF5hijWKH0I4YwFjjWMUVVFAo36AZyce3tREUOEAeTj+NJ61nfOY7FXYq7F&#xA;XYq7FXYq7FXYq7FXYq7FXYq7FXYq7FXYq7FXYq7FXYq7FXYq7FXYq7FXYq7FUsv/AC7pd/qNvf3S&#xA;GSW2HFEJ/dneo5L3of7cws/Z+LLkjkmLMfl8mBgCbKSfmbLJHoEHpuycrpA3EkVHpyGhp7jNb7Ry&#xA;I04o/wAY+4sM/wBKQfljLK+vXAd2YfVXNCSf92R5qfZuROeVn+A/fFqwfUwzOcaX0BnrDsXYq7FX&#xA;Yq7FXYq7FXYq7FXYq7FXYq7FXYq7FXYq7FXYq7FXYq7FXYq7FXYq7FXYq7FXYq8080+cPMdjr95a&#xA;2t36dvEyiNPTiagKA9WUnqc4ztPtbUYtRKEJVEeQ7vc4uTJIGl/mPULvUPy+0y7u39S4luzzegWv&#xA;H1lGygDoMl2hnnl7PxzmbkZ/8WsyTAEof8rv+O/cf8wj/wDJyPKfZr/GJf1D98UYPqYfnPNL6Az1&#xA;h2LsVdirsVdirsVdirsVdirsVdirsVdirsVdirsVdirsVdirsVdirsVdirsVdirsVdirsVeN+dv+&#xA;Up1D/XX/AJNrnnfbP+NT9/6A4WX6immp/wDks9J/5i2/4lPmbqf+MzH/AFz/AL9lL+7Dvyu/479x&#xA;/wAwj/8AJyPH2a/xiX9Q/fFcH1MPznml9AZ6w7F2KuxV2KuxV2KuxV2KuxV2KuxV2KuxV2KuxV2K&#xA;uxV2KuxV2KuxV2KuxV2KuxV2KuxV2KvHfPKFPNV+D3ZD98anPPO2hWqn8PuDhZfqKbXUE91+W+mR&#xA;20bzyR3TF0jUsQOU3UD/AFhmfkhKfZuMRBkRM8v85mRcA3+XdneWWsXVxd28sEK2j1kkRkGzoerA&#xA;DoMPYGKePNKU4mI4DzHmFwgg7sLAJIAFSdgM5sBoe/56u7F2KuxV2KuxV2KuxV2KuxV2KuxV2Kux&#xA;V2KuxV2KuxV2KuxV2KuxV2KuxV2KuxV2KuxV2KvP/wAyPLtw8q6xbIXQIEu1G5Xj9l/lTY5yftDo&#xA;JE+NEWK9X63GzQ6sd8s+b77QucaILi1kPJoGJWjdOSsK0J77ZqOzu1Z6WwBxRPRrhkMUfr35h32p&#xA;2T2cFuLOKUcZmDl3Ze6g0SgPfbMrXdv5M0DCMeAHnvZ/QynmJFITyV5en1TVYpmQiytXEk0h6Eqa&#xA;hB4k9/bMfsfQSz5Qa9ETZ/UxxQsvXs9Bc12KuxV2KuxV2KuxV2KuxV2KuxV2KuxV2KuxV2KuxV2K&#xA;uxV2KuxV2KuxV2KuxV2KuxV2KuIrsemKpBf+RfLd5IZDbGCRvtNAxQf8Duv4Zqc/YmmyG+HhPlt+&#xA;xrOKJULb8uvLMLh2iknp0WSQ0/4XjlePsDTRNkGXvP6qQMMWRW9vBbwrDbxrFEmyxoAqj5AZt8eO&#xA;MBwxFBsApUyaXYq7FXYq7FXYq7FXYq7FXYq7FXYq7FXYq7FXYq7FXYq7FXYq7FXYq7FXYq7FXYq7&#xA;FXYq7FXYq7FXYq7FXYq7FXYq7FXYq7FXYq7FXYq7FXYq7FXYq7FXYq7FXYq7FXYq7FXYq7FXYq7F&#xA;XYq7FXYq7FXYq7FXYq7FXYq7FXYq7FXYq7FXYq7FXYq7FXYq7FXYq7FXYq7FXYq7FXYq7FXYq7FX&#xA;Yq7FXYq7FXYq7FXYq7FXYq7FXYq7FXYq7FXYq7FX/9k=</xmpGImg:image>
               </rdf:li>
            </rdf:Alt>
         </xmp:Thumbnails>
      </rdf:Description>
      <rdf:Description rdf:about=""
            xmlns:xmpMM="http://ns.adobe.com/xap/1.0/mm/"
            xmlns:stRef="http://ns.adobe.com/xap/1.0/sType/ResourceRef#"
            xmlns:stEvt="http://ns.adobe.com/xap/1.0/sType/ResourceEvent#">
         <xmpMM:RenditionClass>proof:pdf</xmpMM:RenditionClass>
         <xmpMM:OriginalDocumentID>uuid:65E6390686CF11DBA6E2D887CEACB407</xmpMM:OriginalDocumentID>
         <xmpMM:DocumentID>xmp.did:DBC05398C34BEC11AE56BF3078284BE6</xmpMM:DocumentID>
         <xmpMM:InstanceID>xmp.iid:DBC05398C34BEC11AE56BF3078284BE6</xmpMM:InstanceID>
         <xmpMM:DerivedFrom rdf:parseType="Resource">
            <stRef:instanceID>xmp.iid:DAC05398C34BEC11AE56BF3078284BE6</stRef:instanceID>
            <stRef:documentID>xmp.did:DAC05398C34BEC11AE56BF3078284BE6</stRef:documentID>
            <stRef:originalDocumentID>uuid:65E6390686CF11DBA6E2D887CEACB407</stRef:originalDocumentID>
            <stRef:renditionClass>proof:pdf</stRef:renditionClass>
         </xmpMM:DerivedFrom>
         <xmpMM:History>
            <rdf:Seq>
               <rdf:li rdf:parseType="Resource">
                  <stEvt:action>saved</stEvt:action>
                  <stEvt:instanceID>xmp.iid:e2f41db3-1e35-9544-b48d-36ab7f8f3652</stEvt:instanceID>
                  <stEvt:when>2021-11-21T13:37:38+07:00</stEvt:when>
                  <stEvt:softwareAgent>Adobe Illustrator 24.3 (Windows)</stEvt:softwareAgent>
                  <stEvt:changed>/</stEvt:changed>
               </rdf:li>
               <rdf:li rdf:parseType="Resource">
                  <stEvt:action>saved</stEvt:action>
                  <stEvt:instanceID>xmp.iid:DBC05398C34BEC11AE56BF3078284BE6</stEvt:instanceID>
                  <stEvt:when>2021-11-23T00:29:27+05:30</stEvt:when>
                  <stEvt:softwareAgent>Adobe Illustrator CS6 (Windows)</stEvt:softwareAgent>
                  <stEvt:changed>/</stEvt:changed>
               </rdf:li>
            </rdf:Seq>
         </xmpMM:History>
      </rdf:Description>
      <rdf:Description rdf:about=""
            xmlns:illustrator="http://ns.adobe.com/illustrator/1.0/">
         <illustrator:StartupProfile>Web</illustrator:StartupProfile>
         <illustrator:CreatorSubTool>Adobe Illustrator</illustrator:CreatorSubTool>
      </rdf:Description>
      <rdf:Description rdf:about=""
            xmlns:pdf="http://ns.adobe.com/pdf/1.3/">
         <pdf:Producer>Adobe PDF library 15.00</pdf:Producer>
      </rdf:Description>
      <rdf:Description rdf:about=""
            xmlns:pdfx="http://ns.adobe.com/pdfx/1.3/">
         <pdfx:CreatorVersion>21.0.0</pdfx:CreatorVersion>
      </rdf:Description>
      <rdf:Description rdf:about=""
            xmlns:xmpTPg="http://ns.adobe.com/xap/1.0/t/pg/"
            xmlns:stDim="http://ns.adobe.com/xap/1.0/sType/Dimensions#"
            xmlns:xmpG="http://ns.adobe.com/xap/1.0/g/">
         <xmpTPg:MaxPageSize rdf:parseType="Resource">
            <stDim:w>998.000000</stDim:w>
            <stDim:h>358.000000</stDim:h>
            <stDim:unit>Pixels</stDim:unit>
         </xmpTPg:MaxPageSize>
         <xmpTPg:NPages>1</xmpTPg:NPages>
         <xmpTPg:HasVisibleTransparency>False</xmpTPg:HasVisibleTransparency>
         <xmpTPg:HasVisibleOverprint>False</xmpTPg:HasVisibleOverprint>
         <xmpTPg:PlateNames>
            <rdf:Seq>
               <rdf:li>Cyan</rdf:li>
               <rdf:li>Magenta</rdf:li>
               <rdf:li>Yellow</rdf:li>
            </rdf:Seq>
         </xmpTPg:PlateNames>
         <xmpTPg:SwatchGroups>
            <rdf:Seq>
               <rdf:li rdf:parseType="Resource">
                  <xmpG:groupName>Default Swatch Group</xmpG:groupName>
                  <xmpG:groupType>0</xmpG:groupType>
               </rdf:li>
            </rdf:Seq>
         </xmpTPg:SwatchGroups>
      </rdf:Description>
   </rdf:RDF>
</x:xmpmeta>
                                                                                                    
                                                                                                    
                                                                                                    
                                                                                                    
                                                                                                    
                                                                                                    
                                                                                                    
                                                                                                    
                                                                                                    
                                                                                                    
                                                                                                    
                                                                                                    
                                                                                                    
                                                                                                    
                                                                                                    
                                                                                                    
                                                                                                    
                                                                                                    
                                                                                                    
                                                                                                    
                           
<?xpacket end="w"?>
	</metadata>
<rect x="-51" y="-34" display="none" fill-rule="evenodd" clip-rule="evenodd" fill="#0C0C0C" width="1119" height="415"/>
<g>
	<path display="none" fill-rule="evenodd" clip-rule="evenodd" fill="#FFFFFF" d="M791.84,10.48c66.88,0,133.76,0,200.641,0
		c0,112.32,0,224.64,0,336.96c-328.001,0-656,0-984,0c0-112.32,0-224.641,0-336.96c250.4,0,500.8,0,751.2,0
		c0.017,0.287,0.104,0.523,0.425,0.593c3.134,3.528,6.67,6.659,9.946,10.046c1.167,1.207,1.178,1.241,0.004,2.44
		c-2.964,3.027-5.947,6.035-8.926,9.047c-5.284,5.343-10.588,10.666-15.835,16.044c-0.847,0.867-1.412,0.822-2.113-0.05
		c-0.298-0.372-0.67-0.686-1.011-1.023c-2.448-2.413-4.884-4.838-7.349-7.233c-1.434-1.393-1.456-1.371-2.791-0.084
		c-0.173,0.167-0.341,0.337-0.51,0.508c-8.263,8.355-16.527,16.708-24.786,25.067c-3.146,3.184-6.289,6.372-9.417,9.574
		c-1.252,1.281-1.247,1.316,0.045,2.618c1.633,1.646,3.287,3.27,4.942,4.893c2.117,2.076,1.644,2.189,3.791,0.016
		c8.595-8.701,17.173-17.417,25.767-26.12c1.461-1.48,1.482-1.461,2.959-0.039c0.345,0.333,0.68,0.676,1.02,1.016
		c2.544,2.543,5.112,5.063,7.62,7.642c0.813,0.836,1.437,0.845,2.124-0.068c0.191-0.254,0.427-0.477,0.651-0.704
		c10.734-10.857,21.467-21.716,32.211-32.564c1.265-1.278,1.321-1.278,2.62,0.005c3.015,2.977,5.991,5.993,9.008,8.967
		c0.401,0.395,0.706,1.126,1.636,0.769c0-0.779,0-1.568,0-2.357c0.001-8.714-0.003-17.428,0.007-26.142
		C791.719,12.387,791.797,11.434,791.84,10.48z M881.601,248.555c0.83-0.07,1.065,0.422,1.402,0.721
		c1.916,1.702,3.899,3.318,6.044,4.724c14.19,9.299,29.811,11.712,46.193,8.702c20.042-3.682,34.539-15.188,43.843-33.2
		c6.804-13.172,8.826-27.255,7.268-41.912c-1.249-11.748-4.916-22.696-11.885-32.257c-15.363-21.077-36.245-29.315-61.853-25.346
		c-11.45,1.775-21.252,7.213-29.481,15.415c-0.519,0.517-0.911,1.28-2.012,1.431c0-0.952,0.001-1.727,0.001-2.503
		c-0.001-3.36,0.013-6.72-0.006-10.079c-0.01-1.777-0.035-1.778-1.885-1.812c-0.399-0.007-0.8-0.001-1.199-0.001
		c-12.479,0-24.959-0.011-37.438,0.007c-3.544,0.005-3.067-0.44-3.067,3.029c-0.01,62.077-0.007,124.154-0.007,186.23
		c0,0.479,0.041,0.964-0.008,1.439c-0.125,1.194,0.271,1.837,1.582,1.666c0.394-0.051,0.799-0.008,1.199-0.008
		c12.879,0.001,25.758,0.006,38.638-0.003c2.986-0.002,2.667,0.317,2.667-2.71c0.006-23.679,0.004-47.357,0.004-71.036
		C881.601,250.209,881.601,249.367,881.601,248.555z M822.69,125.447c-0.019,0-0.037,0-0.055,0c0-7.599,0-15.197,0-22.795
		c0-17.357,0-34.714,0-52.071c0-0.56-0.029-1.122,0.004-1.68c0.056-0.932-0.378-1.309-1.283-1.262
		c-0.559,0.029-1.12,0.001-1.68,0.001c-9.278,0-18.557-0.005-27.835,0.002c-3.912,0.002-3.277-0.239-3.278,3.361
		c-0.014,47.432-0.017,94.863,0.003,142.295c0.002,4.992-0.48,9.912-2.035,14.66c-3.291,10.059-9.537,17.278-20.031,20.177
		c-4.433,1.225-8.953,1.44-13.547,0.869c-11.36-1.415-19.081-7.571-23.615-17.909c-2.415-5.504-3.252-11.341-3.254-17.313
		c-0.007-25.036-0.003-50.071-0.004-75.107c0-0.64-0.025-1.28-0.003-1.919c0.028-0.829-0.381-1.15-1.17-1.118
		c-0.479,0.02-0.96-0.002-1.439-0.002c-9.599,0-19.196,0-28.795,0c-0.479,0-0.962,0.029-1.439-0.002
		c-0.916-0.059-1.323,0.344-1.273,1.262c0.03,0.559,0.002,1.12,0.002,1.68c0,25.195,0.005,50.391-0.005,75.587
		c-0.002,4.245,0.303,8.458,0.918,12.662c2.967,20.246,13.79,34.715,32.104,43.635c7.779,3.788,16.07,5.708,24.68,6.405
		c12.686,1.028,25.114-0.032,36.954-4.952c16.662-6.923,28.26-18.64,33.335-36.268c2.119-7.358,2.766-14.899,2.754-22.531
		C822.669,170.559,822.69,148.002,822.69,125.447z M23.918,154.483c0,33.434,0,66.867,0,100.301c0,2.502-0.167,2.341,2.333,2.338
		c0.16,0,0.32,0,0.48,0c37.273,0,74.546,0,111.819,0c0.56,0,1.122-0.035,1.679,0.005c0.966,0.068,1.277-0.413,1.216-1.3
		c-0.033-0.478-0.004-0.959-0.004-1.438c0-11.918,0.005-23.836-0.004-35.754c-0.002-3.012,0.298-2.673-2.7-2.674
		c-21.596-0.008-43.192-0.004-64.788-0.004c-3.146,0-3.147-0.001-3.147-3.162c0-52.63,0-105.261,0-157.891
		c0-0.72-0.001-1.44-0.01-2.16c-0.007-0.571-0.29-0.887-0.875-0.896c-0.48-0.008-0.96-0.01-1.44-0.01
		c-14.077,0-28.155,0-42.232-0.001c-2.499,0-2.327-0.159-2.327,2.345c0,0.4,0,0.8,0,1.2C23.918,88.416,23.918,121.45,23.918,154.483
		z M291.832,227.363c-0.993-0.521-1.756-0.94-2.534-1.328c-9.011-4.489-18.018-8.986-27.042-13.452
		c-2.825-1.397-1.873-1.423-4.136,0.74c-0.867,0.829-1.705,1.688-2.563,2.526c-5.625,5.501-12.229,8.892-20.173,9.485
		c-5.946,0.445-11.812,0.366-17.503-1.767c-9.821-3.681-16.008-11.821-16.479-21.807c-0.135-2.875,0.009-2.377,2.201-2.384
		c5.76-0.02,11.52-0.007,17.279-0.007c23.518,0,47.036,0.001,70.554-0.002c2.526,0,2.537-0.009,2.611-2.425
		c0.251-8.189-0.331-16.308-2.383-24.264c-5.395-20.916-18.187-35.212-38.56-42.482c-10.833-3.865-22.071-5.135-33.538-4.137
		c-18.125,1.577-33.673,8.8-45.997,22.164c-15.577,16.893-21.385,36.854-16.456,59.423c6.376,29.192,32.978,51.164,64.162,52.908
		c5.43,0.304,10.867,0.137,16.291-0.43c9.455-0.988,18.578-3.184,27.146-7.383C276.234,247.097,285.11,238.594,291.832,227.363z
		 M551.972,199.371c14.719,0,29.437-0.001,44.154,0c2.63,0,2.321,0.032,2.421-2.34c0.331-7.867-0.229-15.666-2.075-23.333
		c-4.563-18.956-15.306-33.027-33.174-41.222c-12.48-5.724-25.699-7.572-39.317-6.385c-19.118,1.667-35.232,9.636-47.708,24.206
		c-14.526,16.963-19.479,36.631-14.345,58.426c6.567,27.874,31.934,49.549,62.856,51.769c9.851,0.707,19.655-0.061,29.297-2.358
		c17.333-4.132,31.12-13.373,40.867-28.417c0.348-0.537,0.681-1.083,1.016-1.627c0.313-0.512,0.19-0.893-0.346-1.16
		c-0.572-0.285-1.134-0.59-1.707-0.874c-8.156-4.053-16.313-8.106-24.474-12.152c-1.571-0.778-3.195-2.184-4.73-2.102
		c-1.572,0.084-2.548,2.202-3.852,3.356c-0.12,0.106-0.227,0.227-0.343,0.337c-3.814,3.594-7.896,6.839-13.011,8.326
		c-7.261,2.11-14.656,2.529-22.031,0.675c-11.579-2.913-18.591-11.216-19.583-22.911c-0.18-2.128-0.14-2.176,1.93-2.211
		c0.479-0.008,0.96-0.001,1.439-0.001C523.495,199.371,537.733,199.371,551.972,199.371z M376.782,198.298
		c-0.382-0.826-0.758-1.615-1.115-2.413c-9.629-21.505-19.271-43.004-28.851-64.532c-0.649-1.458-1.392-1.964-3.017-1.957
		c-15.996,0.072-31.991,0.041-47.987,0.055c-0.594,0-1.252-0.207-1.771,0.217c-0.154,0.783,0.341,1.274,0.629,1.812
		c22.103,41.275,44.226,82.539,66.299,123.83c0.75,1.401,1.57,1.868,3.141,1.853c8.557-0.083,17.115-0.086,25.672,0.002
		c1.584,0.017,2.393-0.474,3.138-1.867c22.071-41.292,44.19-82.558,66.291-123.834c0.317-0.592,0.88-1.131,0.656-2.023
		c-0.805,0-1.602,0-2.398,0c-15.676,0-31.352,0.04-47.027-0.052c-1.901-0.011-2.771,0.573-3.531,2.284
		c-9.536,21.459-19.152,42.884-28.757,64.313C377.804,196.767,377.649,197.676,376.782,198.298z M662.721,150.192
		c0-34.639,0-69.279,0-103.918c0-0.64-0.037-1.283,0.005-1.919c0.063-0.938-0.356-1.303-1.267-1.241
		c-0.558,0.038-1.12,0.005-1.68,0.005c-12.64,0-25.28,0-37.92,0c-3.221,0-3.221,0-3.221,3.124c0,69.279,0,138.558,0,207.837
		c0,0.479,0.048,0.966-0.009,1.439c-0.152,1.271,0.406,1.628,1.638,1.625c13.6-0.035,27.199-0.033,40.799-0.001
		c1.198,0.002,1.819-0.287,1.664-1.594c-0.064-0.552-0.01-1.118-0.01-1.679C662.721,219.311,662.721,184.752,662.721,150.192z
		 M741.035,140.065c0,21.674-0.002,43.348,0.002,65.021c0.001,2.212,0.018,2.229,2.217,2.23c9.917,0.006,19.834,0.007,29.752-0.001
		c2.082-0.002,2.082-0.021,2.109-2.08c0.002-0.16,0-0.32,0-0.48c0-43.107,0-86.215,0-129.323c0-0.56-0.006-1.12-0.016-1.68
		c-0.009-0.564-0.272-0.892-0.865-0.898c-0.56-0.006-1.119-0.015-1.68-0.015c-9.597-0.001-19.194-0.005-28.791,0.002
		c-3.014,0.002-2.726-0.259-2.727,2.682C741.032,97.037,741.035,118.551,741.035,140.065z M805.681,291.95
		c-0.05-0.262-0.06-0.424-0.112-0.571c-0.266-0.752-0.506-1.518-0.823-2.249c-0.785-1.808-0.343-2.002-2.492-0.988
		c-2.991,1.411-5.99,2.463-9.401,2.156c-1.841-0.165-3.632,0.489-5.245,1.444c-3.992,2.363-4.604,7.6-1.288,10.848
		c0.373,0.367,0.972,0.544,1.078,1.298c-1.334,1.166-2.561,2.587-1.569,4.489c0.569,1.095,0.202,1.533-0.551,2.136
		c-0.897,0.718-1.478,1.657-1.643,2.83c-0.354,2.496,0.564,4.305,3.104,5.308c4.967,1.963,9.983,1.912,14.939-0.125
		c1.121-0.461,2.06-1.225,2.814-2.186c2.551-3.249,1.339-7.392-2.566-8.669c-0.904-0.296-1.86-0.472-2.808-0.588
		c-1.902-0.232-3.821-0.34-5.721-0.593c-0.733-0.099-1.898-0.138-1.754-1.172c0.127-0.904,1.211-0.5,1.861-0.488
		c2.266,0.041,4.479-0.166,6.554-1.136c3.068-1.435,4.473-4.358,3.682-7.507c-0.274-1.091-1.04-1.917-1.598-2.906
		C803.217,292.462,804.588,292.792,805.681,291.95z M673.812,279.828c-1.656-0.229-3.217,0.132-4.792,0.24
		c-1.081,0.074-1.313,0.573-1.293,1.527c0.043,2.234,0.016,4.471,0.011,6.706c-0.003,2.024,0.195,2.302-2.012,1.992
		c-0.938-0.132-1.921-0.116-2.866-0.016c-4.092,0.433-7.044,2.471-8.433,6.413c-1.21,3.432-1.083,6.921,0.158,10.321
		c0.911,2.495,2.713,4.044,5.372,4.61c2.373,0.506,4.586,0.12,6.748-0.872c0.484-0.223,1.116-0.873,1.492-0.438
		c1.123,1.295,2.521,0.643,3.781,0.704c1.911,0.093,1.938,0.004,1.939-1.934c0.008-9.261,0.005-18.521-0.001-27.78
		C673.917,280.832,673.851,280.36,673.812,279.828z M447.75,300.817c0,1.997-0.039,3.994,0.014,5.989
		c0.036,1.336-0.577,3.02,0.314,3.916c0.895,0.899,2.58,0.284,3.915,0.311c1.949,0.038,1.968-0.011,1.975-1.91
		c0.013-3.754,0.078-7.51-0.034-11.26c-0.042-1.398,0.528-2.059,1.722-2.433c0.379-0.119,0.749-0.274,1.133-0.371
		c2.835-0.715,3.972,0.065,4.048,2.934c0.077,2.873-0.016,5.75,0.037,8.625c0.026,1.418-0.647,3.295,0.343,4.138
		c1.049,0.895,2.919,0.184,4.424,0.3c0.983,0.076,1.437-0.22,1.423-1.317c-0.055-4.632,0.048-9.266-0.07-13.896
		c-0.095-3.726-2.041-5.479-5.72-5.625c-2.226-0.088-4.258,0.455-6.209,1.471c-0.346,0.181-0.992,0.603-1.049-0.236
		c-0.074-1.092-0.682-1.053-1.469-0.952c-1.108,0.142-2.222,0.298-3.335,0.314c-1.147,0.018-1.5,0.514-1.478,1.618
		C447.787,295.227,447.75,298.022,447.75,300.817z M608.458,293.343c0.572,0.927,1.065,1.655,1.483,2.425
		c0.502,0.923,1.014,1.29,2.054,0.586c1.192-0.807,2.585-1.235,4.002-1.528c0.792-0.163,1.587-0.209,2.366,0.057
		c1.167,0.397,1.778,1.478,1.656,2.86c-0.116,1.316-1.201,0.796-1.853,0.897c-2.373,0.367-4.733,0.742-6.909,1.826
		c-3.124,1.557-4.451,4.19-3.675,7.243c0.666,2.617,3.171,4.212,6.529,4.137c1.783-0.04,3.464-0.483,5.043-1.327
		c0.393-0.21,0.935-0.796,1.245-0.388c1.317,1.731,3.109,0.61,4.651,0.9c0.941,0.176,1.215-0.369,1.207-1.262
		c-0.039-4.551,0.046-9.105-0.075-13.654c-0.084-3.18-1.728-5.117-4.839-5.649C616.775,289.684,612.469,290.431,608.458,293.343z
		 M360.771,293.345c0.53,0.849,1.003,1.498,1.363,2.206c0.566,1.113,1.191,1.505,2.381,0.694c1.123-0.765,2.455-1.137,3.791-1.417
		c0.792-0.166,1.586-0.212,2.366,0.05c1.171,0.395,1.779,1.465,1.668,2.853c-0.106,1.326-1.192,0.808-1.842,0.908
		c-2.532,0.39-5.049,0.79-7.33,2.052c-2.822,1.561-4,4.103-3.268,7.007c0.626,2.485,2.943,4.082,6.042,4.149
		c1.955,0.042,3.792-0.405,5.523-1.323c0.396-0.21,0.945-0.797,1.246-0.399c1.315,1.737,3.108,0.618,4.65,0.907
		c0.93,0.175,1.227-0.347,1.219-1.25c-0.041-4.552,0.044-9.105-0.075-13.654c-0.083-3.186-1.718-5.122-4.83-5.658
		C369.107,289.682,364.798,290.427,360.771,293.345z M743.928,292.084c-0.125-1.395-0.766-1.878-2.048-1.538
		c-0.762,0.201-1.584,0.179-2.38,0.245c-1.953,0.163-1.978,0.16-1.983,2.052c-0.014,4.636-0.022,9.271,0.008,13.905
		c0.009,1.342-0.574,3.06,0.259,3.931c0.94,0.982,2.715,0.321,4.123,0.35c1.766,0.036,1.788-0.026,1.797-1.886
		c0.016-3.517,0.002-7.033,0.006-10.549c0.003-2.646,0.22-2.917,2.795-3.55c2.801-0.688,3.985,0.155,4.035,2.98
		c0.051,2.796,0.014,5.594,0.014,8.391c0,5.102-0.001,5.088,5.041,4.645c0.745-0.065,1.186-0.22,1.18-1.085
		c-0.033-4.874,0.101-9.754-0.099-14.621c-0.134-3.28-2.191-4.922-5.498-5.137C748.602,290.049,746.305,290.854,743.928,292.084z
		 M321.126,302.329c3.144,0,6.099,0,9.054,0c4.112,0,4.112,0,3.815-4.255c-0.269-3.854-2.549-6.711-6.232-7.563
		c-2.116-0.489-4.278-0.475-6.403,0.141c-2.635,0.762-4.508,2.425-5.532,4.927c-1.347,3.295-1.455,6.692-0.353,10.09
		c0.667,2.058,1.923,3.74,3.85,4.717c4.487,2.272,8.952,1.877,13.321-0.426c0.343-0.181,0.859-0.427,0.781-0.815
		c-0.238-1.188-0.896-2.238-1.64-3.146c-0.634-0.772-1.292,0.183-1.907,0.392c-1.064,0.359-2.106,0.728-3.244,0.784
		C323.313,307.34,321.704,306,321.126,302.329z M91.141,302.473c0.777-0.266,1.583-0.132,2.375-0.137
		c2.878-0.018,5.757-0.063,8.633,0.019c1.23,0.035,1.673-0.375,1.772-1.597c0.581-7.091-3.686-10.904-9.59-10.527
		c-0.398,0.026-0.802,0.003-1.198,0.046c-3.553,0.381-6.167,2.099-7.515,5.471c-1.292,3.233-1.306,6.562-0.314,9.863
		c0.671,2.235,2.087,3.992,4.231,4.965c4.832,2.192,9.438,1.554,13.864-1.147c-0.267-1.237-0.979-2.034-1.415-2.966
		c-0.332-0.708-0.767-0.864-1.519-0.453c-1.642,0.898-3.417,1.338-5.308,1.144C92.617,306.893,91.181,305.215,91.141,302.473z
		 M219.714,292.328c-4.196-2.255-8.47-2.955-12.913-1.194c-2.348,0.932-3.582,2.8-3.615,5.425c-0.033,2.646,1.2,4.403,3.579,5.397
		c1.027,0.43,2.101,0.746,3.155,1.111c1.053,0.364,2.122,0.692,3.157,1.102c0.696,0.276,1.301,0.768,1.195,1.604
		c-0.116,0.924-0.829,1.314-1.691,1.408c-1.86,0.202-3.653-0.05-5.394-0.767c-0.796-0.328-1.5-1.262-2.313-1.018
		c-0.911,0.274-1.133,1.464-1.716,2.209c-0.147,0.188-0.245,0.415-0.396,0.599c-0.465,0.566-0.355,0.998,0.267,1.349
		c4.491,2.533,9.166,3.218,14,1.149c2.363-1.011,3.438-3.071,3.497-5.565c0.058-2.441-1.102-4.28-3.255-5.46
		c-0.983-0.539-2.025-0.935-3.108-1.23c-1.077-0.295-2.153-0.597-3.216-0.939c-0.779-0.252-1.602-0.599-1.387-1.629
		c0.195-0.939,1.023-1.119,1.86-1.185c1.138-0.089,2.21,0.228,3.302,0.476c0.975,0.223,1.889,1.414,2.839,0.726
		c0.777-0.563,1.15-1.687,1.687-2.572C219.406,293.062,219.511,292.768,219.714,292.328z M39.64,296.512
		c0,4.319,0.048,8.64-0.03,12.957c-0.023,1.304,0.442,1.606,1.648,1.594c4.799-0.054,9.598-0.021,14.397-0.021
		c3.71,0,3.71,0,3.625-3.668c-0.04-1.739-0.04-1.76-1.919-1.77c-3.12-0.017-6.239,0.006-9.359-0.009
		c-1.968-0.009-1.994-0.025-1.997-1.946c-0.013-6.56,0.001-13.118-0.009-19.678c-0.003-1.854-0.024-1.861-1.763-1.889
		c-0.96-0.015-1.92-0.018-2.879,0.001c-1.674,0.032-1.703,0.04-1.709,1.71C39.628,288.032,39.639,292.271,39.64,296.512z
		 M129.176,295.612c0.283,0.045,0.596,0.146,0.905,0.136c3.129-0.106,2.525,0.427,2.553,2.673c0.031,2.559-0.015,5.119,0.042,7.677
		c0.049,2.254,1.012,4.057,3.092,5.028c2.819,1.317,5.615,0.768,8.347-0.399c0.502-0.214,0.746-0.558,0.487-1.132
		c-0.263-0.582-0.569-1.162-0.712-1.776c-0.307-1.314-0.969-1.482-2.242-1.178c-2.091,0.5-2.747-0.072-2.884-2.284
		c-0.104-1.673-0.039-3.357-0.041-5.037c-0.003-3.47,0-3.53,3.339-3.527c1.281,0.002,1.735-0.355,1.926-1.681
		c0.569-3.941,0.522-3.178-2.723-3.236c-2.839-0.051-2.52,0.288-2.542-2.59c-0.019-2.61-0.013-2.627-2.69-2.302
		c-1.025,0.125-2.239,0.061-3.005,0.598c-0.874,0.613-0.359,1.923-0.362,2.919c-0.003,1.024-0.349,1.36-1.379,1.396
		c-2.341,0.079-2.352,0.137-2.326,2.547C128.968,294.147,128.802,294.878,129.176,295.612z M530.561,290.596
		c-0.354,0.111-0.574,0.229-0.802,0.245c-2.974,0.218-2.923,0.215-2.912,3.247c0.004,1.166,0.213,1.715,1.56,1.712
		c2.133-0.004,2.138,0.102,2.151,2.306c0.018,2.719-0.063,5.442,0.064,8.156c0.143,2.993,1.874,4.867,4.805,5.452
		c1.353,0.27,2.694,0.146,4.041-0.147c3.439-0.749,3.595-1.063,2.215-4.137c-0.405-0.904-0.83-1.056-1.803-0.845
		c-2.512,0.546-3.132,0.012-3.22-2.631c-0.071-2.157-0.043-4.319-0.009-6.479c0.025-1.651,0.06-1.65,1.814-1.713
		c3.314-0.117,3.318-0.117,3.696-3.477c0.043-0.385,0.006-0.778,0.006-1.145c-0.912-0.47-1.806-0.242-2.668-0.261
		c-3.225-0.07-2.802,0.383-2.869-2.76c-0.017-0.773,0.222-1.59-0.319-2.447c-1.443,0.191-2.93,0.415-4.424,0.574
		c-0.939,0.101-1.433,0.457-1.345,1.5C530.623,288.694,530.561,289.652,530.561,290.596z M281.031,295.479
		c0,3.757-0.022,7.514,0.012,11.27c0.012,1.342-0.576,3.06,0.259,3.931c0.941,0.982,2.715,0.321,4.123,0.351
		c1.75,0.036,1.795-0.026,1.798-1.645c0.015-9.352,0.015-18.703,0-28.055c-0.002-1.619-0.047-1.648-1.567-1.577
		c-1.036,0.05-2.066,0.271-3.1,0.281c-1.262,0.012-1.564,0.596-1.549,1.777C281.067,286.368,281.032,290.924,281.031,295.479z
		 M575.282,290.432c-1.671,0.146-3.093,0.353-4.519,0.371c-1.266,0.017-1.607,0.559-1.594,1.755
		c0.053,4.631-0.02,9.263,0.045,13.894c0.021,1.483-0.725,3.428,0.388,4.338c1.042,0.853,2.928,0.136,4.432,0.273
		c1.291,0.119,1.405-0.563,1.39-1.588c-0.044-2.954-0.023-5.908-0.013-8.863c0.008-2.204,1.028-3.511,3.148-4.138
		c0.952-0.282,1.885-0.276,2.828,0.003c0.761,0.227,1.187,0.031,1.285-0.846c0.151-1.347,0.355-2.691,0.623-4.02
		c0.206-1.025-0.342-1.251-1.159-1.344c-2.266-0.257-4.282,0.226-5.918,1.914c-0.16,0.165-0.354,0.334-0.719,0.207
		C575.438,291.829,575.371,291.225,575.282,290.432z M413.823,292.615c-0.588-2.206-0.587-2.201-2.833-1.961
		c-0.635,0.068-1.273,0.096-1.909,0.15c-1.77,0.153-1.797,0.155-1.803,1.974c-0.016,4.628-0.034,9.257,0.013,13.885
		c0.014,1.405-0.646,3.226,0.354,4.109c0.961,0.849,2.745,0.255,4.165,0.261c1.617,0.007,1.642-0.042,1.654-1.79
		c0.02-2.952-0.006-5.905,0.011-8.857c0.011-1.913,0.858-3.118,2.646-3.779c1.073-0.396,2.17-0.479,3.286-0.129
		c0.757,0.238,1.219-0.003,1.323-0.853c0.154-1.266,0.316-2.533,0.542-3.787c0.216-1.196-0.346-1.511-1.425-1.605
		C417.459,290.021,415.455,290.745,413.823,292.615z M708.67,300.705c0-2.311,0-4.621,0-6.932c0-3.328,0-3.327-3.185-3.051
		c-0.396,0.034-0.796,0.046-1.192,0.08c-1.781,0.152-1.811,0.154-1.816,1.955c-0.018,4.621-0.031,9.243,0.01,13.863
		c0.013,1.408-0.64,3.251,0.324,4.114c1.034,0.925,2.889,0.186,4.378,0.32c1.142,0.104,1.53-0.355,1.504-1.507
		C708.624,306.602,708.67,303.653,708.67,300.705z M170.872,292.529c0.44,0.329,0.678,0.536,0.942,0.698
		c1.43,0.875,1.449,0.884,2.454-0.433c1.359-1.781,2.478-3.688,2.962-5.913c0.223-1.023,0.292-2.06,0.077-3.075
		c-0.297-1.407-1.423-2.377-2.83-2.513c-1.378-0.133-2.504,0.345-3.253,1.542c-0.72,1.151-0.602,2.277,0.318,3.53
		c1.606,2.188,1.612,2.298,0.25,4.591C171.512,291.432,171.235,291.909,170.872,292.529z M701.553,283.868
		c-0.079,2.145,1.66,3.939,3.854,3.979c2.114,0.038,3.911-1.556,4.023-3.568c0.123-2.193-1.502-3.968-3.735-4.077
		C703.466,280.091,701.633,281.714,701.553,283.868z"/>
	<path fill-rule="evenodd" clip-rule="evenodd" fill="#8AC519" d="M791.84,10.48c-0.043,0.954-0.121,1.907-0.122,2.861
		c-0.01,8.714-0.006,17.428-0.007,26.142c0,0.789,0,1.578,0,2.357c-0.93,0.357-1.234-0.374-1.636-0.769
		c-3.017-2.975-5.993-5.99-9.008-8.967c-1.299-1.283-1.355-1.283-2.62-0.005c-10.744,10.848-21.477,21.708-32.211,32.564
		c-0.225,0.227-0.46,0.45-0.651,0.704c-0.688,0.913-1.311,0.904-2.124,0.068c-2.508-2.579-5.076-5.099-7.62-7.642
		c-0.34-0.339-0.675-0.683-1.02-1.016c-1.477-1.423-1.498-1.442-2.959,0.039c-8.594,8.702-17.172,17.419-25.767,26.12
		c-2.147,2.173-1.674,2.06-3.791-0.016c-1.655-1.623-3.31-3.247-4.942-4.893c-1.292-1.302-1.297-1.336-0.045-2.618
		c3.128-3.202,6.271-6.39,9.417-9.574c8.259-8.358,16.523-16.712,24.786-25.067c0.169-0.171,0.337-0.342,0.51-0.508
		c1.335-1.287,1.357-1.309,2.791,0.084c2.465,2.395,4.9,4.82,7.349,7.233c0.341,0.337,0.713,0.651,1.011,1.023
		c0.701,0.873,1.267,0.917,2.113,0.05c5.247-5.378,10.551-10.701,15.835-16.044c2.979-3.012,5.962-6.02,8.926-9.047
		c1.174-1.199,1.163-1.233-0.004-2.44c-3.276-3.388-6.813-6.519-9.946-10.046c1.117-0.046,2.233-0.131,3.35-0.133
		c8.31-0.011,16.619,0.004,24.93-0.021c0.84-0.002,1.774,0.32,2.496-0.44C791.2,10.48,791.521,10.48,791.84,10.48z"/>
	<path display="none" fill-rule="evenodd" clip-rule="evenodd" fill="#A9D455" d="M790.88,10.48c-0.722,0.76-1.656,0.438-2.496,0.44
		c-8.311,0.024-16.62,0.009-24.93,0.021c-1.116,0.002-2.232,0.086-3.35,0.133c-0.321-0.07-0.408-0.307-0.425-0.593
		C770.08,10.48,780.48,10.48,790.88,10.48z"/>
	<path fill-rule="evenodd" clip-rule="evenodd" fill="#FFFFFF" d="M881.601,248.555c0,0.813,0,1.654,0,2.497
		c0,23.679,0.002,47.357-0.004,71.036c0,3.027,0.319,2.708-2.667,2.71c-12.88,0.009-25.759,0.004-38.638,0.003
		c-0.4,0-0.806-0.043-1.199,0.008c-1.312,0.171-1.707-0.472-1.582-1.666c0.049-0.476,0.008-0.96,0.008-1.439
		c0-62.076-0.003-124.153,0.007-186.23c0-3.469-0.477-3.024,3.067-3.029c12.479-0.018,24.959-0.007,37.438-0.007
		c0.399,0,0.8-0.006,1.199,0.001c1.85,0.033,1.875,0.034,1.885,1.812c0.019,3.359,0.005,6.719,0.006,10.079
		c0,0.776-0.001,1.551-0.001,2.503c1.101-0.151,1.493-0.914,2.012-1.431c8.229-8.202,18.031-13.64,29.481-15.415
		c25.607-3.969,46.489,4.269,61.853,25.346c6.969,9.561,10.636,20.509,11.885,32.257c1.559,14.657-0.464,28.74-7.268,41.912
		c-9.304,18.012-23.801,29.519-43.843,33.2c-16.383,3.01-32.003,0.597-46.193-8.702c-2.145-1.405-4.128-3.021-6.044-4.724
		C882.666,248.977,882.431,248.484,881.601,248.555z M910.185,226.162c14.993,0.224,29.809-10.623,29.827-29.923
		c0.018-18.574-12.955-29.704-29.754-29.738c-17.198-0.035-29.616,12.452-29.618,29.722
		C880.638,213.336,893.299,226.166,910.185,226.162z"/>
	<path fill-rule="evenodd" clip-rule="evenodd" fill="#8AC417" d="M822.69,125.447c0,22.556-0.021,45.112,0.012,67.667
		c0.012,7.632-0.635,15.173-2.754,22.531c-5.075,17.628-16.673,29.345-33.335,36.268c-11.84,4.92-24.269,5.98-36.954,4.952
		c-8.609-0.697-16.9-2.617-24.68-6.405c-18.314-8.92-29.138-23.389-32.104-43.635c-0.615-4.204-0.92-8.417-0.918-12.662
		c0.01-25.196,0.005-50.392,0.005-75.587c0-0.56,0.028-1.121-0.002-1.68c-0.05-0.918,0.357-1.32,1.273-1.262
		c0.478,0.031,0.96,0.002,1.439,0.002c9.599,0,19.196,0,28.795,0c0.479,0,0.961,0.021,1.439,0.002
		c0.789-0.032,1.198,0.289,1.17,1.118c-0.022,0.639,0.003,1.28,0.003,1.919c0.001,25.036-0.003,50.071,0.004,75.107
		c0.002,5.972,0.839,11.809,3.254,17.313c4.534,10.338,12.255,16.494,23.615,17.909c4.594,0.571,9.114,0.355,13.547-0.869
		c10.494-2.898,16.74-10.118,20.031-20.177c1.555-4.748,2.037-9.668,2.035-14.66c-0.02-47.432-0.017-94.863-0.003-142.295
		c0.001-3.6-0.634-3.358,3.278-3.361c9.278-0.007,18.557-0.002,27.835-0.002c0.56,0,1.121,0.028,1.68-0.001
		c0.905-0.047,1.339,0.33,1.283,1.262c-0.033,0.558-0.004,1.12-0.004,1.68c0,17.357,0,34.714,0,52.071c0,7.598,0,15.196,0,22.795
		C822.653,125.447,822.672,125.447,822.69,125.447z"/>
	<path fill-rule="evenodd" clip-rule="evenodd" fill="#FFFFFF" d="M23.918,154.483c0-33.034,0-66.067,0-99.102c0-0.399,0-0.8,0-1.2
		c0-2.503-0.172-2.345,2.327-2.345c14.077,0.001,28.155,0,42.232,0.001c0.48,0,0.96,0.002,1.44,0.01
		c0.585,0.009,0.868,0.325,0.875,0.896c0.009,0.72,0.01,1.44,0.01,2.16c0,52.63,0,105.26,0,157.891c0,3.161,0.001,3.162,3.147,3.162
		c21.596,0,43.192-0.004,64.788,0.004c2.998,0.001,2.698-0.338,2.7,2.674c0.009,11.918,0.004,23.836,0.004,35.754
		c0,0.479-0.029,0.961,0.004,1.438c0.062,0.887-0.25,1.368-1.216,1.3c-0.557-0.04-1.12-0.005-1.679-0.005
		c-37.273,0-74.546,0-111.819,0c-0.16,0-0.32,0-0.48,0c-2.501,0.003-2.333,0.164-2.333-2.338
		C23.918,221.351,23.918,187.917,23.918,154.483z"/>
	<path fill-rule="evenodd" clip-rule="evenodd" fill="#FFFFFF" d="M291.832,227.363c-6.721,11.23-15.597,19.733-27.12,25.381
		c-8.567,4.199-17.69,6.395-27.146,7.383c-5.423,0.566-10.861,0.733-16.291,0.43c-31.184-1.744-57.785-23.716-64.162-52.908
		c-4.93-22.569,0.878-42.53,16.456-59.423c12.324-13.364,27.872-20.586,45.997-22.164c11.467-0.998,22.706,0.271,33.538,4.137
		c20.373,7.27,33.165,21.566,38.56,42.482c2.052,7.956,2.634,16.074,2.383,24.264c-0.074,2.416-0.085,2.425-2.611,2.425
		c-23.518,0.003-47.036,0.002-70.554,0.002c-5.759,0-11.519-0.013-17.279,0.007c-2.192,0.007-2.336-0.491-2.201,2.384
		c0.471,9.985,6.657,18.126,16.479,21.807c5.691,2.133,11.558,2.212,17.503,1.767c7.944-0.594,14.549-3.984,20.173-9.485
		c0.857-0.839,1.695-1.697,2.563-2.526c2.263-2.163,1.311-2.138,4.136-0.74c9.023,4.466,18.03,8.963,27.042,13.452
		C290.076,226.423,290.838,226.842,291.832,227.363z M202.539,174.92c16.188,0,32.199,0,48.409,0
		c-1.364-8.396-5.129-14.988-13.063-18.305c-8.139-3.402-16.438-3.125-24.334,0.865C206.562,161.01,203.238,167.103,202.539,174.92z
		"/>
	<path fill-rule="evenodd" clip-rule="evenodd" fill="#FFFFFF" d="M551.972,199.371c-14.238,0-28.477,0-42.715,0
		c-0.479,0-0.96-0.007-1.439,0.001c-2.069,0.035-2.109,0.083-1.93,2.211c0.992,11.695,8.004,19.998,19.583,22.911
		c7.375,1.854,14.771,1.436,22.031-0.675c5.115-1.487,9.196-4.732,13.011-8.326c0.116-0.11,0.223-0.23,0.343-0.337
		c1.304-1.154,2.279-3.272,3.852-3.356c1.535-0.082,3.159,1.323,4.73,2.102c8.16,4.046,16.317,8.1,24.474,12.152
		c0.573,0.284,1.135,0.589,1.707,0.874c0.536,0.268,0.659,0.648,0.346,1.16c-0.335,0.544-0.668,1.09-1.016,1.627
		c-9.747,15.044-23.534,24.285-40.867,28.417c-9.642,2.298-19.446,3.065-29.297,2.358c-30.923-2.22-56.29-23.895-62.856-51.769
		c-5.135-21.795-0.181-41.463,14.345-58.426c12.476-14.57,28.59-22.539,47.708-24.206c13.618-1.187,26.837,0.662,39.317,6.385
		c17.868,8.195,28.61,22.267,33.174,41.222c1.846,7.667,2.406,15.466,2.075,23.333c-0.1,2.372,0.209,2.34-2.421,2.34
		C581.408,199.37,566.69,199.371,551.972,199.371z M555.526,175.042c-1.448-8.745-5.41-15.254-13.581-18.671
		c-4.694-1.963-9.62-2.269-14.607-1.705c-3.933,0.444-7.665,1.588-10.999,3.802c-5.327,3.539-8.198,8.604-9.085,14.856
		c-0.234,1.655-0.162,1.676,1.613,1.717c0.24,0.005,0.48,0.001,0.72,0.001c14.557,0,29.112,0,43.668,0
		C553.886,175.042,554.518,175.042,555.526,175.042z"/>
	<path fill-rule="evenodd" clip-rule="evenodd" fill="#FFFFFF" d="M376.782,198.298c0.867-0.622,1.021-1.531,1.373-2.314
		c9.605-21.429,19.221-42.853,28.757-64.313c0.76-1.711,1.63-2.295,3.531-2.284c15.675,0.092,31.351,0.052,47.027,0.052
		c0.796,0,1.593,0,2.398,0c0.224,0.892-0.339,1.431-0.656,2.023c-22.101,41.276-44.219,82.542-66.291,123.834
		c-0.745,1.394-1.553,1.884-3.138,1.867c-8.557-0.088-17.115-0.085-25.672-0.002c-1.571,0.016-2.391-0.451-3.141-1.853
		c-22.073-41.291-44.196-82.555-66.299-123.83c-0.288-0.537-0.784-1.029-0.629-1.812c0.519-0.424,1.177-0.217,1.771-0.217
		c15.996-0.014,31.991,0.017,47.987-0.055c1.625-0.007,2.368,0.499,3.017,1.957c9.579,21.528,19.221,43.027,28.851,64.532
		C376.024,196.683,376.4,197.472,376.782,198.298z"/>
	<path fill-rule="evenodd" clip-rule="evenodd" fill="#FFFFFF" d="M662.721,150.192c0,34.56,0,69.119,0,103.678
		c0,0.561-0.055,1.127,0.01,1.679c0.155,1.307-0.466,1.596-1.664,1.594c-13.6-0.032-27.199-0.034-40.799,0.001
		c-1.231,0.003-1.79-0.354-1.638-1.625c0.057-0.474,0.009-0.96,0.009-1.439c0-69.279,0-138.558,0-207.837
		c0-3.124,0-3.124,3.221-3.124c12.64,0,25.28,0,37.92,0c0.56,0,1.122,0.033,1.68-0.005c0.91-0.062,1.329,0.304,1.267,1.241
		c-0.042,0.637-0.005,1.279-0.005,1.919C662.721,80.913,662.721,115.553,662.721,150.192z"/>
	<path fill-rule="evenodd" clip-rule="evenodd" fill="#89C417" d="M741.035,140.065c0-21.514-0.003-43.028,0.002-64.542
		c0.001-2.94-0.287-2.68,2.727-2.682c9.597-0.007,19.194-0.003,28.791-0.002c0.561,0,1.12,0.009,1.68,0.015
		c0.593,0.006,0.856,0.334,0.865,0.898c0.01,0.56,0.016,1.12,0.016,1.68c0,43.108,0,86.216,0,129.323c0,0.16,0.002,0.32,0,0.48
		c-0.027,2.06-0.027,2.078-2.109,2.08c-9.918,0.008-19.835,0.007-29.752,0.001c-2.199-0.002-2.216-0.019-2.217-2.23
		C741.033,183.413,741.035,161.739,741.035,140.065z"/>
	<path fill-rule="evenodd" clip-rule="evenodd" fill="#FFFFFF" d="M805.681,291.95c-1.093,0.842-2.464,0.512-3.539,1.331
		c0.558,0.989,1.323,1.815,1.598,2.906c0.791,3.148-0.613,6.072-3.682,7.507c-2.075,0.97-4.288,1.177-6.554,1.136
		c-0.65-0.012-1.734-0.416-1.861,0.488c-0.145,1.034,1.021,1.073,1.754,1.172c1.899,0.253,3.818,0.36,5.721,0.593
		c0.947,0.116,1.903,0.292,2.808,0.588c3.905,1.277,5.117,5.42,2.566,8.669c-0.755,0.961-1.693,1.725-2.814,2.186
		c-4.956,2.037-9.973,2.088-14.939,0.125c-2.539-1.003-3.457-2.812-3.104-5.308c0.165-1.173,0.745-2.112,1.643-2.83
		c0.753-0.603,1.12-1.041,0.551-2.136c-0.991-1.902,0.235-3.323,1.569-4.489c-0.106-0.754-0.705-0.931-1.078-1.298
		c-3.315-3.248-2.704-8.484,1.288-10.848c1.613-0.955,3.404-1.609,5.245-1.444c3.411,0.307,6.41-0.745,9.401-2.156
		c2.149-1.014,1.707-0.819,2.492,0.988c0.317,0.731,0.558,1.497,0.823,2.249C805.621,291.526,805.631,291.688,805.681,291.95z
		 M793.788,294.602c-1.098,0.008-2.431,0.22-3.081,1.713c-0.481,1.106-0.459,2.247,0.391,3.144c1.258,1.328,2.93,1.111,4.513,0.881
		c1.119-0.163,1.837-0.888,2.034-2.064C798.025,296.01,796.697,294.622,793.788,294.602z M793.975,315.677
		c1.146,0.097,2.328-0.077,3.458-0.476c0.844-0.298,1.665-0.759,1.545-1.841c-0.106-0.958-0.931-1.268-1.722-1.382
		c-2.12-0.307-4.253-0.522-6.379-0.788c-0.587-0.073-0.838,0.261-1.072,0.719c-0.844,1.653-0.295,2.933,1.516,3.464
		C792.166,315.622,793.031,315.723,793.975,315.677z"/>
	<path fill-rule="evenodd" clip-rule="evenodd" fill="#FFFFFF" d="M673.812,279.828c0.039,0.532,0.105,1.004,0.105,1.475
		c0.006,9.26,0.009,18.52,0.001,27.78c-0.002,1.938-0.028,2.026-1.939,1.934c-1.261-0.062-2.658,0.591-3.781-0.704
		c-0.376-0.435-1.008,0.216-1.492,0.438c-2.162,0.992-4.375,1.378-6.748,0.872c-2.659-0.566-4.461-2.115-5.372-4.61
		c-1.241-3.4-1.368-6.89-0.158-10.321c1.389-3.942,4.341-5.98,8.433-6.413c0.945-0.101,1.928-0.116,2.866,0.016
		c2.207,0.31,2.009,0.032,2.012-1.992c0.005-2.235,0.032-4.472-0.011-6.706c-0.02-0.954,0.212-1.453,1.293-1.527
		C670.595,279.96,672.155,279.599,673.812,279.828z M667.776,300.492c-0.003,0-0.005,0-0.007,0c0-1.52,0.005-3.039-0.003-4.559
		c-0.003-0.583-0.102-1.052-0.814-1.258c-2.621-0.757-5.255,0.472-6.272,3.063c-0.685,1.741-0.826,3.552-0.528,5.417
		c0.586,3.671,2.733,4.899,6.149,3.529c1.017-0.408,1.563-0.949,1.494-2.115C667.714,303.215,667.776,301.852,667.776,300.492z"/>
	<path fill-rule="evenodd" clip-rule="evenodd" fill="#FFFFFF" d="M447.75,300.817c0-2.795,0.038-5.591-0.018-8.385
		c-0.022-1.104,0.331-1.601,1.478-1.618c1.113-0.017,2.228-0.173,3.335-0.314c0.787-0.101,1.395-0.14,1.469,0.952
		c0.057,0.839,0.703,0.417,1.049,0.236c1.951-1.016,3.983-1.559,6.209-1.471c3.679,0.146,5.625,1.899,5.72,5.625
		c0.119,4.63,0.015,9.264,0.07,13.896c0.013,1.098-0.44,1.394-1.423,1.317c-1.505-0.116-3.375,0.595-4.424-0.3
		c-0.99-0.843-0.317-2.72-0.343-4.138c-0.052-2.875,0.04-5.752-0.037-8.625c-0.077-2.868-1.213-3.648-4.048-2.934
		c-0.384,0.097-0.753,0.252-1.133,0.371c-1.194,0.374-1.763,1.034-1.722,2.433c0.111,3.75,0.046,7.506,0.034,11.26
		c-0.006,1.899-0.025,1.948-1.975,1.91c-1.335-0.026-3.02,0.589-3.915-0.311c-0.891-0.896-0.278-2.58-0.314-3.916
		C447.71,304.812,447.75,302.814,447.75,300.817z"/>
	<path fill-rule="evenodd" clip-rule="evenodd" fill="#FFFFFF" d="M608.458,293.343c4.011-2.912,8.317-3.659,12.887-2.877
		c3.111,0.532,4.755,2.47,4.839,5.649c0.121,4.549,0.036,9.104,0.075,13.654c0.008,0.893-0.266,1.438-1.207,1.262
		c-1.542-0.29-3.334,0.831-4.651-0.9c-0.311-0.408-0.853,0.178-1.245,0.388c-1.579,0.844-3.26,1.287-5.043,1.327
		c-3.358,0.075-5.863-1.52-6.529-4.137c-0.776-3.053,0.551-5.687,3.675-7.243c2.176-1.084,4.536-1.459,6.909-1.826
		c0.651-0.102,1.736,0.419,1.853-0.897c0.122-1.383-0.489-2.463-1.656-2.86c-0.779-0.266-1.574-0.22-2.366-0.057
		c-1.417,0.293-2.81,0.722-4.002,1.528c-1.04,0.704-1.552,0.337-2.054-0.586C609.523,294.998,609.03,294.27,608.458,293.343z
		 M619.936,302.351c-1.972-0.003-3.678,0.271-5.157,1.336c-0.758,0.545-1.186,1.294-0.909,2.271
		c0.283,1.001,1.071,1.352,2.005,1.371c1.374,0.03,2.762-0.188,3.802-1.105c0.779-0.688,0.266-1.803,0.357-2.724
		C620.063,303.197,619.985,302.885,619.936,302.351z"/>
	<path fill-rule="evenodd" clip-rule="evenodd" fill="#FFFFFF" d="M360.771,293.345c4.027-2.918,8.335-3.663,12.903-2.876
		c3.112,0.536,4.746,2.473,4.83,5.658c0.119,4.549,0.035,9.103,0.075,13.654c0.008,0.903-0.289,1.425-1.219,1.25
		c-1.542-0.289-3.335,0.83-4.65-0.907c-0.301-0.397-0.851,0.189-1.246,0.399c-1.73,0.918-3.568,1.365-5.523,1.323
		c-3.098-0.067-5.415-1.664-6.042-4.149c-0.732-2.904,0.446-5.446,3.268-7.007c2.281-1.262,4.798-1.662,7.33-2.052
		c0.65-0.101,1.736,0.418,1.842-0.908c0.111-1.388-0.497-2.458-1.668-2.853c-0.779-0.262-1.574-0.216-2.366-0.05
		c-1.336,0.28-2.668,0.652-3.791,1.417c-1.19,0.811-1.815,0.419-2.381-0.694C361.774,294.843,361.302,294.193,360.771,293.345z
		 M372.329,304.275c0-0.402,0.015-0.879-0.005-1.354c-0.016-0.361-0.229-0.593-0.598-0.572c-1.847,0.099-3.673,0.333-5.048,1.735
		c-0.828,0.844-0.798,2.137,0.074,2.742c1.417,0.982,2.869,0.388,4.327-0.046C372.406,306.387,372.475,305.442,372.329,304.275z"/>
	<path fill-rule="evenodd" clip-rule="evenodd" fill="#FFFFFF" d="M743.928,292.084c2.377-1.229,4.674-2.035,7.249-1.867
		c3.307,0.215,5.364,1.856,5.498,5.137c0.199,4.867,0.065,9.747,0.099,14.621c0.006,0.865-0.435,1.02-1.18,1.085
		c-5.042,0.443-5.041,0.457-5.041-4.645c0-2.797,0.037-5.595-0.014-8.391c-0.05-2.825-1.234-3.669-4.035-2.98
		c-2.575,0.633-2.792,0.903-2.795,3.55c-0.004,3.516,0.01,7.032-0.006,10.549c-0.009,1.859-0.031,1.922-1.797,1.886
		c-1.408-0.028-3.183,0.633-4.123-0.35c-0.833-0.871-0.25-2.589-0.259-3.931c-0.03-4.635-0.021-9.27-0.008-13.905
		c0.006-1.892,0.03-1.889,1.983-2.052c0.796-0.066,1.618-0.044,2.38-0.245C743.162,290.206,743.803,290.689,743.928,292.084z"/>
	<path fill-rule="evenodd" clip-rule="evenodd" fill="#FFFFFF" d="M321.126,302.329c0.577,3.671,2.187,5.011,5.511,4.846
		c1.137-0.057,2.18-0.425,3.244-0.784c0.615-0.209,1.273-1.164,1.907-0.392c0.744,0.907,1.402,1.957,1.64,3.146
		c0.078,0.389-0.438,0.635-0.781,0.815c-4.369,2.303-8.833,2.698-13.321,0.426c-1.927-0.977-3.183-2.659-3.85-4.717
		c-1.102-3.397-0.994-6.795,0.353-10.09c1.023-2.502,2.896-4.165,5.532-4.927c2.125-0.615,4.287-0.63,6.403-0.141
		c3.683,0.852,5.963,3.709,6.232,7.563c0.297,4.255,0.297,4.255-3.815,4.255C327.226,302.329,324.271,302.329,321.126,302.329z
		 M324.915,298.392c0,0.005,0,0.009,0,0.013c0.634,0,1.269,0.021,1.901-0.005c1.321-0.054,1.542-0.331,1.285-1.54
		c-0.358-1.681-1.776-2.686-3.507-2.484c-1.698,0.196-3.204,1.749-3.222,3.291c-0.006,0.499,0.227,0.719,0.691,0.724
		C323.013,298.398,323.964,298.392,324.915,298.392z"/>
	<path fill-rule="evenodd" clip-rule="evenodd" fill="#FFFFFF" d="M91.141,302.473c0.04,2.742,1.476,4.42,4.017,4.68
		c1.891,0.194,3.666-0.245,5.308-1.144c0.752-0.411,1.188-0.255,1.519,0.453c0.437,0.932,1.148,1.729,1.415,2.966
		c-4.426,2.701-9.032,3.34-13.864,1.147c-2.144-0.973-3.56-2.729-4.231-4.965c-0.992-3.302-0.979-6.63,0.314-9.863
		c1.348-3.372,3.962-5.09,7.515-5.471c0.396-0.043,0.799-0.02,1.198-0.046c5.905-0.377,10.171,3.437,9.59,10.527
		c-0.1,1.222-0.542,1.632-1.772,1.597c-2.875-0.081-5.755-0.036-8.633-0.019C92.725,302.341,91.918,302.207,91.141,302.473z
		 M91.153,298.405c1.773,0,3.366,0.01,4.958-0.003c2.053-0.017,2.481-0.796,1.437-2.588c-0.63-1.081-1.937-1.636-3.309-1.405
		C92.457,294.708,91.696,295.639,91.153,298.405z"/>
	<path fill-rule="evenodd" clip-rule="evenodd" fill="#FFFFFF" d="M219.714,292.328c-0.203,0.439-0.308,0.733-0.466,0.994
		c-0.537,0.886-0.91,2.01-1.687,2.572c-0.95,0.688-1.864-0.503-2.839-0.726c-1.092-0.248-2.164-0.564-3.302-0.476
		c-0.837,0.065-1.665,0.245-1.86,1.185c-0.214,1.03,0.608,1.377,1.387,1.629c1.063,0.343,2.139,0.645,3.216,0.939
		c1.083,0.296,2.125,0.691,3.108,1.23c2.153,1.18,3.313,3.019,3.255,5.46c-0.059,2.494-1.134,4.555-3.497,5.565
		c-4.834,2.068-9.509,1.384-14-1.149c-0.622-0.351-0.731-0.782-0.267-1.349c0.151-0.184,0.248-0.411,0.396-0.599
		c0.583-0.745,0.805-1.935,1.716-2.209c0.813-0.244,1.517,0.689,2.313,1.018c1.741,0.717,3.534,0.969,5.394,0.767
		c0.862-0.094,1.575-0.484,1.691-1.408c0.105-0.836-0.5-1.327-1.195-1.604c-1.036-0.409-2.104-0.737-3.157-1.102
		c-1.054-0.365-2.128-0.682-3.155-1.111c-2.378-0.994-3.612-2.751-3.579-5.397c0.033-2.625,1.267-4.493,3.615-5.425
		C211.244,289.373,215.518,290.073,219.714,292.328z"/>
	<path fill-rule="evenodd" clip-rule="evenodd" fill="#FFFFFF" d="M39.639,296.512c0-4.24-0.011-8.479,0.006-12.719
		c0.006-1.67,0.035-1.678,1.709-1.71c0.959-0.019,1.919-0.016,2.879-0.001c1.739,0.027,1.76,0.034,1.763,1.889
		c0.01,6.56-0.004,13.118,0.009,19.678c0.003,1.921,0.029,1.938,1.997,1.946c3.12,0.015,6.239-0.008,9.359,0.009
		c1.879,0.01,1.879,0.03,1.919,1.77c0.084,3.668,0.084,3.668-3.625,3.668c-4.799,0-9.599-0.032-14.397,0.021
		c-1.206,0.013-1.671-0.29-1.648-1.594C39.688,305.151,39.64,300.831,39.639,296.512z"/>
	<path fill-rule="evenodd" clip-rule="evenodd" fill="#FFFFFF" d="M129.176,295.612c-0.374-0.734-0.208-1.465-0.216-2.17
		c-0.026-2.41-0.015-2.468,2.326-2.547c1.03-0.035,1.375-0.371,1.379-1.396c0.003-0.996-0.512-2.306,0.362-2.919
		c0.767-0.537,1.98-0.473,3.005-0.598c2.678-0.325,2.671-0.309,2.69,2.302c0.021,2.878-0.297,2.539,2.542,2.59
		c3.245,0.059,3.292-0.705,2.723,3.236c-0.191,1.325-0.646,1.683-1.926,1.681c-3.339-0.003-3.342,0.058-3.339,3.527
		c0.001,1.68-0.063,3.364,0.041,5.037c0.137,2.212,0.793,2.784,2.884,2.284c1.273-0.305,1.936-0.137,2.242,1.178
		c0.143,0.614,0.449,1.194,0.712,1.776c0.259,0.574,0.015,0.918-0.487,1.132c-2.732,1.167-5.528,1.717-8.347,0.399
		c-2.08-0.972-3.042-2.774-3.092-5.028c-0.056-2.558-0.011-5.118-0.042-7.677c-0.027-2.246,0.576-2.779-2.553-2.673
		C129.772,295.759,129.459,295.657,129.176,295.612z"/>
	<path fill-rule="evenodd" clip-rule="evenodd" fill="#FFFFFF" d="M530.561,290.596c0-0.943,0.063-1.901-0.018-2.848
		c-0.088-1.043,0.405-1.399,1.345-1.5c1.494-0.159,2.98-0.383,4.424-0.574c0.541,0.857,0.303,1.674,0.319,2.447
		c0.067,3.143-0.355,2.689,2.869,2.76c0.862,0.019,1.756-0.209,2.668,0.261c0,0.366,0.037,0.76-0.006,1.145
		c-0.378,3.359-0.382,3.359-3.696,3.477c-1.755,0.063-1.789,0.062-1.814,1.713c-0.034,2.159-0.063,4.321,0.009,6.479
		c0.088,2.643,0.708,3.177,3.22,2.631c0.973-0.211,1.397-0.06,1.803,0.845c1.38,3.074,1.225,3.388-2.215,4.137
		c-1.347,0.293-2.688,0.417-4.041,0.147c-2.931-0.585-4.662-2.459-4.805-5.452c-0.128-2.714-0.047-5.438-0.064-8.156
		c-0.014-2.204-0.019-2.31-2.151-2.306c-1.347,0.003-1.556-0.546-1.56-1.712c-0.011-3.032-0.062-3.029,2.912-3.247
		C529.986,290.824,530.206,290.707,530.561,290.596z"/>
	<path fill-rule="evenodd" clip-rule="evenodd" fill="#FFFFFF" d="M281.031,295.479c0-4.556,0.036-9.111-0.024-13.667
		c-0.015-1.182,0.287-1.766,1.549-1.777c1.034-0.011,2.064-0.231,3.1-0.281c1.52-0.071,1.564-0.042,1.567,1.577
		c0.015,9.352,0.014,18.703,0,28.055c-0.002,1.618-0.047,1.681-1.798,1.645c-1.407-0.029-3.182,0.632-4.123-0.351
		c-0.835-0.871-0.247-2.589-0.259-3.931C281.009,302.993,281.031,299.236,281.031,295.479z"/>
	<path fill-rule="evenodd" clip-rule="evenodd" fill="#FFFFFF" d="M575.282,290.432c0.089,0.793,0.155,1.397,0.218,1.957
		c0.365,0.127,0.559-0.042,0.719-0.207c1.636-1.688,3.652-2.171,5.918-1.914c0.817,0.093,1.365,0.318,1.159,1.344
		c-0.268,1.328-0.472,2.673-0.623,4.02c-0.099,0.877-0.524,1.072-1.285,0.846c-0.943-0.279-1.876-0.285-2.828-0.003
		c-2.12,0.627-3.141,1.934-3.148,4.138c-0.011,2.955-0.031,5.909,0.013,8.863c0.016,1.024-0.099,1.707-1.39,1.588
		c-1.504-0.138-3.39,0.579-4.432-0.273c-1.112-0.91-0.367-2.854-0.388-4.338c-0.064-4.631,0.008-9.263-0.045-13.894
		c-0.014-1.196,0.328-1.738,1.594-1.755C572.189,290.784,573.611,290.578,575.282,290.432z"/>
	<path fill-rule="evenodd" clip-rule="evenodd" fill="#FFFFFF" d="M413.823,292.615c1.632-1.87,3.636-2.594,6.022-2.383
		c1.079,0.095,1.642,0.409,1.425,1.605c-0.227,1.254-0.388,2.521-0.542,3.787c-0.104,0.85-0.565,1.091-1.323,0.853
		c-1.116-0.351-2.213-0.268-3.286,0.129c-1.788,0.661-2.635,1.866-2.646,3.779c-0.017,2.952,0.009,5.905-0.011,8.857
		c-0.012,1.748-0.037,1.797-1.654,1.79c-1.42-0.006-3.204,0.588-4.165-0.261c-1-0.884-0.339-2.704-0.354-4.109
		c-0.046-4.628-0.029-9.257-0.013-13.885c0.006-1.818,0.033-1.82,1.803-1.974c0.636-0.055,1.274-0.082,1.909-0.15
		C413.235,290.414,413.235,290.409,413.823,292.615z"/>
	<path fill-rule="evenodd" clip-rule="evenodd" fill="#FFFFFF" d="M708.67,300.705c0,2.948-0.046,5.896,0.022,8.844
		c0.026,1.151-0.362,1.61-1.504,1.507c-1.489-0.135-3.344,0.604-4.378-0.32c-0.964-0.863-0.312-2.706-0.324-4.114
		c-0.041-4.62-0.027-9.242-0.01-13.863c0.006-1.801,0.035-1.803,1.816-1.955c0.396-0.034,0.796-0.046,1.192-0.08
		c3.185-0.276,3.185-0.277,3.185,3.051C708.67,296.084,708.67,298.395,708.67,300.705z"/>
	<path fill-rule="evenodd" clip-rule="evenodd" fill="#FFFFFF" d="M170.872,292.529c0.363-0.62,0.64-1.098,0.922-1.572
		c1.362-2.293,1.356-2.403-0.25-4.591c-0.92-1.253-1.038-2.379-0.318-3.53c0.749-1.197,1.875-1.675,3.253-1.542
		c1.407,0.136,2.533,1.105,2.83,2.513c0.214,1.016,0.146,2.052-0.077,3.075c-0.484,2.225-1.603,4.132-2.962,5.913
		c-1.005,1.316-1.024,1.308-2.454,0.433C171.55,293.065,171.313,292.858,170.872,292.529z"/>
	<path fill-rule="evenodd" clip-rule="evenodd" fill="#FFFFFF" d="M701.553,283.868c0.08-2.154,1.913-3.777,4.143-3.667
		c2.233,0.109,3.858,1.884,3.735,4.077c-0.112,2.013-1.909,3.606-4.023,3.568C703.213,287.808,701.474,286.013,701.553,283.868z"/>
	<path display="none" fill-rule="evenodd" clip-rule="evenodd" fill="#FEFEFE" d="M910.185,226.162
		c-16.886,0.004-29.547-12.826-29.545-29.939c0.002-17.27,12.42-29.757,29.618-29.722c16.799,0.034,29.771,11.164,29.754,29.738
		C939.993,215.539,925.178,226.386,910.185,226.162z"/>
	<path display="none" fill-rule="evenodd" clip-rule="evenodd" fill="#FCFCFD" d="M202.539,174.92
		c0.7-7.817,4.023-13.91,11.011-17.44c7.897-3.99,16.195-4.267,24.334-0.865c7.934,3.316,11.699,9.909,13.063,18.305
		C234.737,174.92,218.727,174.92,202.539,174.92z"/>
	<path display="none" fill-rule="evenodd" clip-rule="evenodd" fill="#FCFCFD" d="M555.526,175.042c-1.009,0-1.641,0-2.271,0
		c-14.556,0-29.111,0-43.668,0c-0.239,0-0.479,0.004-0.72-0.001c-1.775-0.041-1.848-0.062-1.613-1.717
		c0.887-6.252,3.758-11.317,9.085-14.856c3.334-2.214,7.066-3.358,10.999-3.802c4.987-0.563,9.913-0.258,14.607,1.705
		C550.116,159.788,554.078,166.298,555.526,175.042z"/>
	<path display="none" fill-rule="evenodd" clip-rule="evenodd" fill="#F5F6F7" d="M793.788,294.602
		c2.909,0.021,4.237,1.408,3.856,3.673c-0.197,1.177-0.915,1.901-2.034,2.064c-1.583,0.23-3.255,0.447-4.513-0.881
		c-0.85-0.896-0.872-2.037-0.391-3.144C791.357,294.821,792.69,294.609,793.788,294.602z"/>
	<path display="none" fill-rule="evenodd" clip-rule="evenodd" fill="#F5F6F7" d="M793.975,315.677
		c-0.943,0.046-1.809-0.055-2.654-0.304c-1.811-0.531-2.359-1.811-1.516-3.464c0.234-0.458,0.485-0.792,1.072-0.719
		c2.126,0.266,4.259,0.481,6.379,0.788c0.791,0.114,1.615,0.424,1.722,1.382c0.12,1.082-0.701,1.543-1.545,1.841
		C796.303,315.6,795.12,315.773,793.975,315.677z"/>
	<path display="none" fill-rule="evenodd" clip-rule="evenodd" fill="#F5F6F7" d="M667.776,300.492c0,1.359-0.063,2.723,0.019,4.077
		c0.069,1.166-0.478,1.707-1.494,2.115c-3.416,1.37-5.563,0.142-6.149-3.529c-0.298-1.865-0.156-3.676,0.528-5.417
		c1.018-2.591,3.651-3.819,6.272-3.063c0.713,0.206,0.812,0.675,0.814,1.258c0.008,1.52,0.003,3.039,0.003,4.559
		C667.771,300.492,667.773,300.492,667.776,300.492z"/>
	<path display="none" fill-rule="evenodd" clip-rule="evenodd" fill="#F5F6F7" d="M619.936,302.351
		c0.05,0.534,0.128,0.847,0.098,1.149c-0.092,0.921,0.422,2.036-0.357,2.724c-1.04,0.918-2.428,1.136-3.802,1.105
		c-0.934-0.02-1.722-0.37-2.005-1.371c-0.276-0.978,0.151-1.727,0.909-2.271C616.258,302.622,617.964,302.348,619.936,302.351z"/>
	<path display="none" fill-rule="evenodd" clip-rule="evenodd" fill="#F5F6F7" d="M372.329,304.275
		c0.146,1.167,0.077,2.111-1.25,2.505c-1.458,0.434-2.91,1.028-4.327,0.046c-0.872-0.605-0.902-1.898-0.074-2.742
		c1.375-1.402,3.202-1.637,5.048-1.735c0.369-0.021,0.582,0.211,0.598,0.572C372.344,303.396,372.329,303.873,372.329,304.275z"/>
	<path display="none" fill-rule="evenodd" clip-rule="evenodd" fill="#F5F6F7" d="M324.915,298.392
		c-0.951,0-1.901,0.007-2.852-0.002c-0.464-0.005-0.697-0.225-0.691-0.724c0.018-1.542,1.524-3.095,3.222-3.291
		c1.731-0.201,3.149,0.804,3.507,2.484c0.257,1.209,0.036,1.486-1.285,1.54c-0.633,0.026-1.267,0.005-1.901,0.005
		C324.915,298.4,324.915,298.396,324.915,298.392z"/>
	<path display="none" fill-rule="evenodd" clip-rule="evenodd" fill="#F5F6F7" d="M91.153,298.405
		c0.543-2.767,1.304-3.697,3.086-3.996c1.373-0.23,2.679,0.324,3.309,1.405c1.044,1.792,0.616,2.571-1.437,2.588
		C94.519,298.415,92.926,298.405,91.153,298.405z"/>
</g>
</svg>
